<svg xmlns="http://www.w3.org/2000/svg" width="24" height="24" viewBox="0 0 24 24">
    <path id="bounds" opacity="0" d="M0 0h24v24H0z"/>
    <path d="M18.114 12.77c.017-2.026-.653-3.83-1.886-5.078-1.11-1.122-2.608-1.744-4.223-1.75H12h-.008c-1.613.006-3.113.628-4.222 1.75-1.232 1.248-1.902 3.052-1.885 5.08.028 3.302-1.522 4.55-1.582 4.596-.26.192-.366.53-.265.837.102.308.39.515.712.515h3.22c.16 2.093 1.896 3.753 4.03 3.753s3.87-1.66 4.03-3.753h3.22c.32 0 .602-.206.706-.51.104-.302 0-.64-.252-.837-.066-.052-1.618-1.3-1.59-4.602zM12 20.474c-1.032 0-1.88-.763-2.03-1.753h4.06c-.15.99-.998 1.753-2.03 1.753zM16.313 3.778c-.522-.177-1.09.104-1.268.627s.104 1.09.627 1.268c.802.27 1.646.67 2.394 1.74.748 1.07.83 2 .807 2.846-.015.55.42 1.01.974 1.025h.027c.54 0 .984-.43 1-.974.027-1.063-.08-2.484-1.167-4.043-1.088-1.557-2.385-2.148-3.394-2.49z"/>
    <path d="M22.216 4.58c-1.564-2.242-3.44-3.096-4.897-3.588-.524-.178-1.092.104-1.27.627s.105 1.09.628 1.267c1.304.44 2.678 1.09 3.897 2.838 1.223 1.75 1.356 3.263 1.32 4.636-.016.554.42 1.013.972 1.028h.028c.54 0 .984-.43 1-.973.04-1.538-.113-3.59-1.68-5.835zM4.153 11.285c.553-.016.988-.475.974-1.026-.023-.847.06-1.778.807-2.848.747-1.07 1.592-1.47 2.394-1.74.522-.176.803-.743.626-1.267-.176-.523-.743-.802-1.267-.627-1.01.34-2.306.932-3.394 2.49-1.088 1.56-1.194 2.98-1.166 4.044.015.543.46.974 1 .974h.026z"/>
    <path d="M3.425 5.725c1.22-1.75 2.594-2.397 3.897-2.838.523-.177.804-.744.627-1.268C7.772 1.095 7.204.814 6.68.99 5.224 1.484 3.35 2.338 1.784 4.58.218 6.824.064 8.877.104 10.415c.016.543.46.973 1 .973h.028c.552-.016.987-.475.973-1.027-.037-1.373.097-2.884 1.32-4.635z"/>
</svg>
